<svg width="277" height="64" viewBox="0 0 277 64" fill="none" xmlns="http://www.w3.org/2000/svg">
<path d="M126.581 7.18182V29H121.969V7.18182H126.581ZM129.546 10.9851V7.18182H147.465V10.9851H140.785V29H136.225V10.9851H129.546ZM155.029 7.18182V29H150.416V7.18182H155.029Z" fill="white"/>
<path d="M3 43.02V57H1.6V43.02H3ZM11.2903 45.88C12.597 45.88 13.6636 46.2867 14.4903 47.1C15.317 47.9 15.7303 49.0667 15.7303 50.6V57H14.3503V50.76C14.3503 49.5733 14.0503 48.6667 13.4503 48.04C12.8636 47.4133 12.057 47.1 11.0303 47.1C9.97698 47.1 9.13698 47.4333 8.51031 48.1C7.88365 48.7667 7.57031 49.7467 7.57031 51.04V57H6.17031V46.08H7.57031V47.94C7.91698 47.2733 8.41698 46.7667 9.07031 46.42C9.72365 46.06 10.4636 45.88 11.2903 45.88ZM18.1866 51.52C18.1866 50.4 18.4132 49.42 18.8666 48.58C19.3199 47.7267 19.9399 47.0733 20.7266 46.62C21.5266 46.1533 22.4266 45.92 23.4266 45.92C24.3866 45.92 25.2532 46.1533 26.0266 46.62C26.7999 47.0867 27.3666 47.6933 27.7266 48.44V42.2H29.1266V57H27.7266V54.56C27.3932 55.32 26.8466 55.9467 26.0866 56.44C25.3266 56.92 24.4332 57.16 23.4066 57.16C22.4066 57.16 21.5066 56.9267 20.7066 56.46C19.9199 55.9933 19.2999 55.3333 18.8466 54.48C18.4066 53.6267 18.1866 52.64 18.1866 51.52ZM27.7266 51.54C27.7266 50.66 27.5466 49.8867 27.1866 49.22C26.8266 48.5533 26.3332 48.04 25.7066 47.68C25.0932 47.32 24.4132 47.14 23.6666 47.14C22.8932 47.14 22.1999 47.3133 21.5866 47.66C20.9732 48.0067 20.4866 48.5133 20.1266 49.18C19.7799 49.8333 19.6066 50.6133 19.6066 51.52C19.6066 52.4133 19.7799 53.2 20.1266 53.88C20.4866 54.5467 20.9732 55.06 21.5866 55.42C22.1999 55.7667 22.8932 55.94 23.6666 55.94C24.4132 55.94 25.0932 55.76 25.7066 55.4C26.3332 55.04 26.8266 54.5267 27.1866 53.86C27.5466 53.1933 27.7266 52.42 27.7266 51.54ZM41.7827 46.08V57H40.3827V55.08C40.0627 55.76 39.5693 56.28 38.9027 56.64C38.236 57 37.4893 57.18 36.6627 57.18C35.356 57.18 34.2893 56.78 33.4627 55.98C32.636 55.1667 32.2227 53.9933 32.2227 52.46V46.08H33.6027V52.3C33.6027 53.4867 33.896 54.3933 34.4827 55.02C35.0827 55.6467 35.896 55.96 36.9227 55.96C37.976 55.96 38.816 55.6267 39.4427 54.96C40.0693 54.2933 40.3827 53.3133 40.3827 52.02V46.08H41.7827ZM48.7389 57.16C47.4856 57.16 46.4589 56.8733 45.6589 56.3C44.8722 55.7133 44.4322 54.92 44.3389 53.92H45.7789C45.8456 54.5333 46.1322 55.0333 46.6389 55.42C47.1589 55.7933 47.8522 55.98 48.7189 55.98C49.4789 55.98 50.0722 55.8 50.4989 55.44C50.9389 55.08 51.1589 54.6333 51.1589 54.1C51.1589 53.7267 51.0389 53.42 50.7989 53.18C50.5589 52.94 50.2522 52.7533 49.8789 52.62C49.5189 52.4733 49.0256 52.32 48.3989 52.16C47.5856 51.9467 46.9256 51.7333 46.4189 51.52C45.9122 51.3067 45.4789 50.9933 45.1189 50.58C44.7722 50.1533 44.5989 49.5867 44.5989 48.88C44.5989 48.3467 44.7589 47.8533 45.0789 47.4C45.3989 46.9467 45.8522 46.5867 46.4389 46.32C47.0256 46.0533 47.6922 45.92 48.4389 45.92C49.6122 45.92 50.5589 46.22 51.2789 46.82C51.9989 47.4067 52.3856 48.22 52.4389 49.26H51.0389C50.9989 48.62 50.7456 48.1067 50.2789 47.72C49.8256 47.32 49.1989 47.12 48.3989 47.12C47.6922 47.12 47.1189 47.2867 46.6789 47.62C46.2389 47.9533 46.0189 48.3667 46.0189 48.86C46.0189 49.2867 46.1456 49.64 46.3989 49.92C46.6656 50.1867 46.9922 50.4 47.3789 50.56C47.7656 50.7067 48.2856 50.8733 48.9389 51.06C49.7256 51.2733 50.3522 51.48 50.8189 51.68C51.2856 51.88 51.6856 52.1733 52.0189 52.56C52.3522 52.9467 52.5256 53.46 52.5389 54.1C52.5389 54.6867 52.3789 55.2133 52.0589 55.68C51.7389 56.1333 51.2922 56.4933 50.7189 56.76C50.1456 57.0267 49.4856 57.16 48.7389 57.16ZM56.9942 47.26V54.04C56.9942 54.7067 57.1209 55.1667 57.3742 55.42C57.6276 55.6733 58.0742 55.8 58.7142 55.8H59.9942V57H58.4942C57.5076 57 56.7742 56.7733 56.2942 56.32C55.8142 55.8533 55.5742 55.0933 55.5742 54.04V47.26H54.0542V46.08H55.5742V43.34H56.9942V46.08H59.9942V47.26H56.9942ZM63.7031 48.02C64.0098 47.34 64.4765 46.8133 65.1031 46.44C65.7431 46.0667 66.5231 45.88 67.4431 45.88V47.34H67.0631C66.0498 47.34 65.2365 47.6133 64.6231 48.16C64.0098 48.7067 63.7031 49.62 63.7031 50.9V57H62.3031V46.08H63.7031V48.02ZM70.2492 44.02C69.9692 44.02 69.7292 43.92 69.5292 43.72C69.3292 43.52 69.2292 43.2733 69.2292 42.98C69.2292 42.6867 69.3292 42.4467 69.5292 42.26C69.7292 42.06 69.9692 41.96 70.2492 41.96C70.5292 41.96 70.7692 42.06 70.9692 42.26C71.1692 42.4467 71.2692 42.6867 71.2692 42.98C71.2692 43.2733 71.1692 43.52 70.9692 43.72C70.7692 43.92 70.5292 44.02 70.2492 44.02ZM70.9492 46.08V57H69.5492V46.08H70.9492ZM73.4795 51.52C73.4795 50.4 73.6995 49.42 74.1395 48.58C74.5929 47.7267 75.2129 47.0733 75.9995 46.62C76.7995 46.1533 77.6995 45.92 78.6995 45.92C79.7395 45.92 80.6329 46.16 81.3795 46.64C82.1395 47.12 82.6862 47.7333 83.0195 48.48V46.08H84.4195V57H83.0195V54.58C82.6729 55.3267 82.1195 55.9467 81.3595 56.44C80.6129 56.92 79.7195 57.16 78.6795 57.16C77.6929 57.16 76.7995 56.9267 75.9995 56.46C75.2129 55.9933 74.5929 55.3333 74.1395 54.48C73.6995 53.6267 73.4795 52.64 73.4795 51.52ZM83.0195 51.54C83.0195 50.66 82.8395 49.8867 82.4795 49.22C82.1195 48.5533 81.6262 48.04 80.9995 47.68C80.3862 47.32 79.7062 47.14 78.9595 47.14C78.1862 47.14 77.4929 47.3133 76.8795 47.66C76.2662 48.0067 75.7795 48.5133 75.4195 49.18C75.0729 49.8333 74.8995 50.6133 74.8995 51.52C74.8995 52.4133 75.0729 53.2 75.4195 53.88C75.7795 54.5467 76.2662 55.06 76.8795 55.42C77.4929 55.7667 78.1862 55.94 78.9595 55.94C79.7062 55.94 80.3862 55.76 80.9995 55.4C81.6262 55.04 82.1195 54.5267 82.4795 53.86C82.8395 53.1933 83.0195 52.42 83.0195 51.54ZM89.0156 42.2V57H87.6156V42.2H89.0156ZM105.854 43.02V44.18H101.974V57H100.574V44.18H96.6742V43.02H105.854ZM117.945 50.98C117.945 51.46 117.932 51.8267 117.905 52.08H108.845C108.885 52.9067 109.085 53.6133 109.445 54.2C109.805 54.7867 110.278 55.2333 110.865 55.54C111.452 55.8333 112.092 55.98 112.785 55.98C113.692 55.98 114.452 55.76 115.065 55.32C115.692 54.88 116.105 54.2867 116.305 53.54H117.785C117.518 54.6067 116.945 55.48 116.065 56.16C115.198 56.8267 114.105 57.16 112.785 57.16C111.758 57.16 110.838 56.9333 110.025 56.48C109.212 56.0133 108.572 55.36 108.105 54.52C107.652 53.6667 107.425 52.6733 107.425 51.54C107.425 50.4067 107.652 49.4133 108.105 48.56C108.558 47.7067 109.192 47.0533 110.005 46.6C110.818 46.1467 111.745 45.92 112.785 45.92C113.825 45.92 114.732 46.1467 115.505 46.6C116.292 47.0533 116.892 47.6667 117.305 48.44C117.732 49.2 117.945 50.0467 117.945 50.98ZM116.525 50.94C116.538 50.1267 116.372 49.4333 116.025 48.86C115.692 48.2867 115.232 47.8533 114.645 47.56C114.058 47.2667 113.418 47.12 112.725 47.12C111.685 47.12 110.798 47.4533 110.065 48.12C109.332 48.7867 108.925 49.7267 108.845 50.94H116.525ZM119.866 51.54C119.866 50.4067 120.093 49.42 120.546 48.58C121 47.7267 121.626 47.0733 122.426 46.62C123.226 46.1533 124.14 45.92 125.166 45.92C126.513 45.92 127.62 46.2533 128.486 46.92C129.366 47.5867 129.933 48.4933 130.186 49.64H128.686C128.5 48.8533 128.093 48.24 127.466 47.8C126.853 47.3467 126.086 47.12 125.166 47.12C124.433 47.12 123.773 47.2867 123.186 47.62C122.6 47.9533 122.133 48.4533 121.786 49.12C121.453 49.7733 121.286 50.58 121.286 51.54C121.286 52.5 121.453 53.3133 121.786 53.98C122.133 54.6467 122.6 55.1467 123.186 55.48C123.773 55.8133 124.433 55.98 125.166 55.98C126.086 55.98 126.853 55.76 127.466 55.32C128.093 54.8667 128.5 54.24 128.686 53.44H130.186C129.933 54.56 129.366 55.46 128.486 56.14C127.606 56.82 126.5 57.16 125.166 57.16C124.14 57.16 123.226 56.9333 122.426 56.48C121.626 56.0133 121 55.36 120.546 54.52C120.093 53.6667 119.866 52.6733 119.866 51.54ZM137.972 45.88C138.799 45.88 139.539 46.0533 140.192 46.4C140.859 46.7467 141.379 47.28 141.752 48C142.139 48.7067 142.332 49.5733 142.332 50.6V57H140.952V50.76C140.952 49.5733 140.652 48.6667 140.052 48.04C139.465 47.4133 138.659 47.1 137.632 47.1C136.579 47.1 135.739 47.4333 135.112 48.1C134.485 48.7667 134.172 49.7467 134.172 51.04V57H132.772V42.2H134.172V47.94C134.519 47.2867 135.025 46.78 135.692 46.42C136.372 46.06 137.132 45.88 137.972 45.88ZM150.548 45.88C151.855 45.88 152.921 46.2867 153.748 47.1C154.575 47.9 154.988 49.0667 154.988 50.6V57H153.608V50.76C153.608 49.5733 153.308 48.6667 152.708 48.04C152.121 47.4133 151.315 47.1 150.288 47.1C149.235 47.1 148.395 47.4333 147.768 48.1C147.141 48.7667 146.828 49.7467 146.828 51.04V57H145.428V46.08H146.828V47.94C147.175 47.2733 147.675 46.7667 148.328 46.42C148.981 46.06 149.721 45.88 150.548 45.88ZM158.784 44.02C158.504 44.02 158.264 43.92 158.064 43.72C157.864 43.52 157.764 43.2733 157.764 42.98C157.764 42.6867 157.864 42.4467 158.064 42.26C158.264 42.06 158.504 41.96 158.784 41.96C159.064 41.96 159.304 42.06 159.504 42.26C159.704 42.4467 159.804 42.6867 159.804 42.98C159.804 43.2733 159.704 43.52 159.504 43.72C159.304 43.92 159.064 44.02 158.784 44.02ZM159.484 46.08V57H158.084V46.08H159.484ZM162.015 51.54C162.015 50.4067 162.241 49.42 162.695 48.58C163.148 47.7267 163.775 47.0733 164.575 46.62C165.375 46.1533 166.288 45.92 167.315 45.92C168.661 45.92 169.768 46.2533 170.635 46.92C171.515 47.5867 172.081 48.4933 172.335 49.64H170.835C170.648 48.8533 170.241 48.24 169.615 47.8C169.001 47.3467 168.235 47.12 167.315 47.12C166.581 47.12 165.921 47.2867 165.335 47.62C164.748 47.9533 164.281 48.4533 163.935 49.12C163.601 49.7733 163.435 50.58 163.435 51.54C163.435 52.5 163.601 53.3133 163.935 53.98C164.281 54.6467 164.748 55.1467 165.335 55.48C165.921 55.8133 166.581 55.98 167.315 55.98C168.235 55.98 169.001 55.76 169.615 55.32C170.241 54.8667 170.648 54.24 170.835 53.44H172.335C172.081 54.56 171.515 55.46 170.635 56.14C169.755 56.82 168.648 57.16 167.315 57.16C166.288 57.16 165.375 56.9333 164.575 56.48C163.775 56.0133 163.148 55.36 162.695 54.52C162.241 53.6667 162.015 52.6733 162.015 51.54ZM174.28 51.52C174.28 50.4 174.5 49.42 174.94 48.58C175.394 47.7267 176.014 47.0733 176.8 46.62C177.6 46.1533 178.5 45.92 179.5 45.92C180.54 45.92 181.434 46.16 182.18 46.64C182.94 47.12 183.487 47.7333 183.82 48.48V46.08H185.22V57H183.82V54.58C183.474 55.3267 182.92 55.9467 182.16 56.44C181.414 56.92 180.52 57.16 179.48 57.16C178.494 57.16 177.6 56.9267 176.8 56.46C176.014 55.9933 175.394 55.3333 174.94 54.48C174.5 53.6267 174.28 52.64 174.28 51.52ZM183.82 51.54C183.82 50.66 183.64 49.8867 183.28 49.22C182.92 48.5533 182.427 48.04 181.8 47.68C181.187 47.32 180.507 47.14 179.76 47.14C178.987 47.14 178.294 47.3133 177.68 47.66C177.067 48.0067 176.58 48.5133 176.22 49.18C175.874 49.8333 175.7 50.6133 175.7 51.52C175.7 52.4133 175.874 53.2 176.22 53.88C176.58 54.5467 177.067 55.06 177.68 55.42C178.294 55.7667 178.987 55.94 179.76 55.94C180.507 55.94 181.187 55.76 181.8 55.4C182.427 55.04 182.92 54.5267 183.28 53.86C183.64 53.1933 183.82 52.42 183.82 51.54ZM189.816 42.2V57H188.416V42.2H189.816ZM199.875 43.02V57H198.475V43.02H199.875ZM208.165 45.88C209.472 45.88 210.539 46.2867 211.365 47.1C212.192 47.9 212.605 49.0667 212.605 50.6V57H211.225V50.76C211.225 49.5733 210.925 48.6667 210.325 48.04C209.739 47.4133 208.932 47.1 207.905 47.1C206.852 47.1 206.012 47.4333 205.385 48.1C204.759 48.7667 204.445 49.7467 204.445 51.04V57H203.045V46.08H204.445V47.94C204.792 47.2733 205.292 46.7667 205.945 46.42C206.599 46.06 207.339 45.88 208.165 45.88ZM219.462 57.16C218.208 57.16 217.182 56.8733 216.382 56.3C215.595 55.7133 215.155 54.92 215.062 53.92H216.502C216.568 54.5333 216.855 55.0333 217.362 55.42C217.882 55.7933 218.575 55.98 219.442 55.98C220.202 55.98 220.795 55.8 221.222 55.44C221.662 55.08 221.882 54.6333 221.882 54.1C221.882 53.7267 221.762 53.42 221.522 53.18C221.282 52.94 220.975 52.7533 220.602 52.62C220.242 52.4733 219.748 52.32 219.122 52.16C218.308 51.9467 217.648 51.7333 217.142 51.52C216.635 51.3067 216.202 50.9933 215.842 50.58C215.495 50.1533 215.322 49.5867 215.322 48.88C215.322 48.3467 215.482 47.8533 215.802 47.4C216.122 46.9467 216.575 46.5867 217.162 46.32C217.748 46.0533 218.415 45.92 219.162 45.92C220.335 45.92 221.282 46.22 222.002 46.82C222.722 47.4067 223.108 48.22 223.162 49.26H221.762C221.722 48.62 221.468 48.1067 221.002 47.72C220.548 47.32 219.922 47.12 219.122 47.12C218.415 47.12 217.842 47.2867 217.402 47.62C216.962 47.9533 216.742 48.3667 216.742 48.86C216.742 49.2867 216.868 49.64 217.122 49.92C217.388 50.1867 217.715 50.4 218.102 50.56C218.488 50.7067 219.008 50.8733 219.662 51.06C220.448 51.2733 221.075 51.48 221.542 51.68C222.008 51.88 222.408 52.1733 222.742 52.56C223.075 52.9467 223.248 53.46 223.262 54.1C223.262 54.6867 223.102 55.2133 222.782 55.68C222.462 56.1333 222.015 56.4933 221.442 56.76C220.868 57.0267 220.208 57.16 219.462 57.16ZM227.717 47.26V54.04C227.717 54.7067 227.844 55.1667 228.097 55.42C228.35 55.6733 228.797 55.8 229.437 55.8H230.717V57H229.217C228.23 57 227.497 56.7733 227.017 56.32C226.537 55.8533 226.297 55.0933 226.297 54.04V47.26H224.777V46.08H226.297V43.34H227.717V46.08H230.717V47.26H227.717ZM233.726 44.02C233.446 44.02 233.206 43.92 233.006 43.72C232.806 43.52 232.706 43.2733 232.706 42.98C232.706 42.6867 232.806 42.4467 233.006 42.26C233.206 42.06 233.446 41.96 233.726 41.96C234.006 41.96 234.246 42.06 234.446 42.26C234.646 42.4467 234.746 42.6867 234.746 42.98C234.746 43.2733 234.646 43.52 234.446 43.72C234.246 43.92 234.006 44.02 233.726 44.02ZM234.426 46.08V57H233.026V46.08H234.426ZM239.416 47.26V54.04C239.416 54.7067 239.543 55.1667 239.796 55.42C240.049 55.6733 240.496 55.8 241.136 55.8H242.416V57H240.916C239.929 57 239.196 56.7733 238.716 56.32C238.236 55.8533 237.996 55.0933 237.996 54.04V47.26H236.476V46.08H237.996V43.34H239.416V46.08H242.416V47.26H239.416ZM254.185 46.08V57H252.785V55.08C252.465 55.76 251.972 56.28 251.305 56.64C250.638 57 249.892 57.18 249.065 57.18C247.758 57.18 246.692 56.78 245.865 55.98C245.038 55.1667 244.625 53.9933 244.625 52.46V46.08H246.005V52.3C246.005 53.4867 246.298 54.3933 246.885 55.02C247.485 55.6467 248.298 55.96 249.325 55.96C250.378 55.96 251.218 55.6267 251.845 54.96C252.472 54.2933 252.785 53.3133 252.785 52.02V46.08H254.185ZM259.201 47.26V54.04C259.201 54.7067 259.328 55.1667 259.581 55.42C259.835 55.6733 260.281 55.8 260.921 55.8H262.201V57H260.701C259.715 57 258.981 56.7733 258.501 56.32C258.021 55.8533 257.781 55.0933 257.781 54.04V47.26H256.261V46.08H257.781V43.34H259.201V46.08H262.201V47.26H259.201ZM274.39 50.98C274.39 51.46 274.377 51.8267 274.35 52.08H265.29C265.33 52.9067 265.53 53.6133 265.89 54.2C266.25 54.7867 266.723 55.2333 267.31 55.54C267.897 55.8333 268.537 55.98 269.23 55.98C270.137 55.98 270.897 55.76 271.51 55.32C272.137 54.88 272.55 54.2867 272.75 53.54H274.23C273.963 54.6067 273.39 55.48 272.51 56.16C271.643 56.8267 270.55 57.16 269.23 57.16C268.203 57.16 267.283 56.9333 266.47 56.48C265.657 56.0133 265.017 55.36 264.55 54.52C264.097 53.6667 263.87 52.6733 263.87 51.54C263.87 50.4067 264.097 49.4133 264.55 48.56C265.003 47.7067 265.637 47.0533 266.45 46.6C267.263 46.1467 268.19 45.92 269.23 45.92C270.27 45.92 271.177 46.1467 271.95 46.6C272.737 47.0533 273.337 47.6667 273.75 48.44C274.177 49.2 274.39 50.0467 274.39 50.98ZM272.97 50.94C272.983 50.1267 272.817 49.4333 272.47 48.86C272.137 48.2867 271.677 47.8533 271.09 47.56C270.503 47.2667 269.863 47.12 269.17 47.12C268.13 47.12 267.243 47.4533 266.51 48.12C265.777 48.7867 265.37 49.7267 265.29 50.94H272.97Z" fill="white"/>
</svg>
